<svg version="1.2" xmlns="http://www.w3.org/2000/svg" viewBox="0 0 1000 1000" width="1000" height="1000">
	<title>New Project (11)</title>
	<style>
		.s0 { fill: #ffffff } 
	</style>
	<path id="Path 0" fill-rule="evenodd" class="s0" d="m103.5 82l281.5 0.4c196.7 0.2 286.3 0.6 297.5 1.4 8.8 0.6 19.8 1.6 24.5 2.2 4.7 0.5 14.6 2.5 22 4.4 7.4 1.9 15.8 4.3 18.5 5.4 2.8 1.1 9.5 3.8 15 6.1 5.5 2.3 15.2 6.9 21.5 10.3 6.3 3.3 15.3 8.6 20 11.7 4.7 3 12.5 8.9 17.5 13 5 4.2 15 13.6 22.3 21.1 7.3 7.4 16.8 18 21.1 23.5 4.3 5.5 9.2 12 10.9 14.5 1.6 2.5 5.9 9.9 9.5 16.5 3.6 6.6 9 17.8 12.1 25 3 7.2 7.1 18.4 9 25 1.9 6.6 5.2 19.2 11.1 44l-0.3 589-2.1 4.2c-1.1 2.4-3.8 6.2-6 8.5-2.1 2.4-6.3 5.6-14.6 10.1l-284.5-0.6c-243.2-0.5-286.9-0.8-301-2.1-9.1-0.9-20.1-2.3-24.5-3.2-4.4-0.8-11.8-2.6-16.5-3.9-4.7-1.3-15.5-5-24-8.3-8.5-3.2-19.8-8.1-25-10.7-5.2-2.6-13.8-7.6-19-11-5.2-3.4-14-9.7-19.5-14.1-5.5-4.4-17-15-25.5-23.5-8.5-8.5-19.1-20.2-23.5-26-4.4-5.9-10.9-15.8-14.5-22-3.5-6.3-9.1-17.3-12.3-24.4-3.3-7.1-7.9-18.9-10.3-26-2.3-7.1-5.7-19.8-7.5-28-1.8-8.3-3.6-19-4-24-0.4-5-0.8-139-0.9-587l3.5-6c2-3.3 4.8-7 6.3-8.3 1.5-1.3 4.7-3.4 7.2-4.7zm364.5 239.9c-4.1 0.6-11.8 2.3-17 3.6-5.2 1.3-13.6 3.7-18.5 5.4-4.9 1.8-14.4 5.8-21 9-6.6 3.2-17.4 9.4-24 13.8-6.6 4.4-16.3 11.8-21.5 16.4-5.2 4.6-13.2 12.7-17.8 17.9-4.6 5.2-11.9 14.7-16.3 21.2-4.3 6.4-10.6 17.2-13.8 24-3.3 6.7-7.3 16.3-9.1 21.2-1.7 5-4.2 13.3-5.5 18.5-1.3 5.2-3.1 14.5-4 20.5-1.1 7.3-1.6 17.4-1.6 30 0 10.5 0.4 19.4 0.8 19.8 0.5 0.4 91.2 0.6 201.8 0.5l201-0.3c0.8-16.3 0.7-27.1 0.3-34.5-0.4-7.9-1.7-18.8-3.3-26.5-1.4-7.1-4.4-18.4-6.6-25-2.2-6.6-6.7-17.5-10-24.2-3.2-6.8-9.5-17.6-13.8-24-4.4-6.5-11.7-16-16.3-21.2-4.6-5.2-12.6-13.3-17.8-17.9-5.2-4.6-14.9-12-21.5-16.4-6.6-4.4-17.4-10.6-24-13.8-6.6-3.2-16-7.2-21-9-5-1.7-13.3-4.2-18.5-5.5-5.2-1.3-14.5-3-20.5-3.9-6-0.8-15.3-1.6-20.5-1.8-5.2-0.2-14.7 0-21 0.3-6.3 0.3-14.9 1.2-19 1.9zm-147.4 257c-4 3.7-4.1 3.9-4.1 10.9 0 6.8 0.2 7.3 3.5 10.6 2.1 2.1 5.1 4 7.5 4.5 2.4 0.6 69.4 1 172 1 92.4 0 169.8-0.3 171.9-0.7 2.4-0.5 5.6-2.2 8-4.4 4.1-3.6 4.1-3.7 4.1-10.9 0-7.2 0-7.2-4.1-10.8-2.4-2.2-5.6-4-8-4.4-2.1-0.4-79.7-0.7-172.4-0.6-92.7 0.1-169.8 0.3-171.4 0.5-1.6 0.3-4.8 2.2-7 4.3zm27 56.8c-1 1.5-1.9 4.1-1.9 5.7 0 1.7 0.9 4.3 1.9 5.8 1.1 1.7 3.4 3.2 5.4 3.8 2.1 0.5 61.8 0.9 146.5 0.9 84.7 0 144.4-0.4 146.5-0.9 2-0.6 4.3-2.1 5.4-3.8 1-1.5 1.9-4.1 1.9-5.8 0-1.6-0.9-4.2-1.9-5.8-1.1-1.6-3.4-3.2-5.4-3.7-2.1-0.6-61.7-0.9-147-0.9-82.9 0.1-144.8 0.5-146.5 1-1.7 0.5-3.9 2.2-4.9 3.7zm28.4 36.7c-0.4 1.1-0.3 3 0.1 4.3 0.5 1.2 2 2.7 3.4 3.2 1.6 0.7 43.9 0.9 121.5 0.8 104.1-0.2 119.1-0.5 120.5-1.8 0.9-0.8 1.6-2.8 1.6-4.5 0-1.6-0.7-3.7-1.6-4.5-1.4-1.3-16.4-1.5-120.8-1.7-93.4-0.2-119.7 0-121.6 1-1.3 0.7-2.7 2.1-3.1 3.2z"/>
</svg>